$MeshFormat
2.2 0 8
$EndMeshFormat
$PhysicalNames
3
1 3 "innerwall"
1 4 "outerwall"
2 5 "fluid"
$EndPhysicalNames
$Nodes
350
1 1 0 0
2 2 0 0
3 0.9807852804032305 0.1950903220161278 0
4 0.9238795325112872 0.3826834323650888 0
5 0.831469612302546 0.555570233019601 0
6 0.7071067811865488 0.7071067811865462 0
7 0.5555702330196042 0.8314696123025439 0
8 0.3826834323650923 0.9238795325112857 0
9 0.1950903220161314 0.9807852804032299 0
10 3.391901413832837e-15 1 0
11 -0.1950903220161241 0.9807852804032313 0
12 -0.3826834323650852 0.9238795325112886 0
13 -0.555570233019598 0.8314696123025481 0
14 -0.7071067811865434 0.7071067811865517 0
15 -0.8314696123025419 0.5555702330196073 0
16 -0.9238795325112843 0.3826834323650956 0
17 -0.9807852804032292 0.1950903220161347 0
18 -1 7.227892037515737e-15 0
19 -0.9807852804032321 -0.1950903220161201 0
20 -0.9238795325112898 -0.3826834323650822 0
21 -0.8314696123025489 -0.5555702330195967 0
22 -0.707106781186552 -0.707106781186543 0
23 -0.5555702330196074 -0.8314696123025418 0
24 -0.3826834323650944 -0.9238795325112849 0
25 -0.195090322016133 -0.9807852804032295 0
26 -4.624589118372729e-15 -1 0
27 0.1950903220161239 -0.9807852804032313 0
28 0.3826834323650859 -0.9238795325112884 0
29 0.5555702330196004 -0.8314696123025465 0
30 0.7071067811865461 -0.7071067811865489 0
31 0.8314696123025442 -0.5555702330196037 0
32 0.9238795325112865 -0.3826834323650904 0
33 0.9807852804032303 -0.1950903220161287 0
34 1.990061550730803 0.1991356931916328 0
35 1.960344975697088 0.3962922863987942 0
36 1.911145611572282 0.5895103488218069 0
37 1.842952423740816 0.7768695925493875 0
38 1.756443146740458 0.9565079572426342 0
39 1.652477548631992 1.126640116127241 0
40 1.532088886237958 1.285575219373076 0
41 1.396473636172148 1.431733698519434 0
42 1.246979603717471 1.563662964936057 0
43 1.085092527731523 1.68005184630154 0
44 0.9124213147063305 1.779743617622935 0
45 0.7306820487327953 1.861747497288406 0
46 0.5416809362860159 1.925248493900023 0
47 0.347296355333867 1.969615506024415 0
48 0.149460187172855 1.99440759436236 0
49 -0.04986138347613872 1.999378364001633 0
50 -0.2486874092949624 1.984478413200345 0
51 -0.44504186791262 1.949855824363649 0
52 -0.6369733005033602 1.895854692334267 0
53 -0.8225742062612138 1.82301170462335 0
54 -0.9999999999999911 1.732050807568882 0
55 -1.167487344469571 1.623876011431719 0
56 -1.32337167519371 1.499562405935476 0
57 -1.466103743659644 1.360345475541848 0
58 -1.594265014445838 1.207608820650964 0
59 -1.706581763264305 1.042870406759007 0
60 -1.801937735804833 0.8677674782351277 0
61 -1.879385241571812 0.6840402866513503 0
62 -1.938154572458153 0.4935147953806006 0
63 -1.977661652450255 0.2980845323523626 0
64 -1.997513842437844 0.09969177132140827 0
65 -1.997513842437846 -0.09969177132137939 0
66 -1.977661652450259 -0.2980845323523331 0
67 -1.93815457245816 -0.4935147953805717 0
68 -1.879385241571822 -0.6840402866513231 0
69 -1.801937735804845 -0.8677674782351024 0
70 -1.706581763264319 -1.042870406758984 0
71 -1.594265014445853 -1.207608820650944 0
72 -1.466103743659662 -1.360345475541829 0
73 -1.323371675193729 -1.49956240593546 0
74 -1.16748734446959 -1.623876011431706 0
75 -1.00000000000001 -1.732050807568871 0
76 -0.8225742062612329 -1.823011704623342 0
77 -0.6369733005033783 -1.89585469233426 0
78 -0.4450418679126378 -1.949855824363645 0
79 -0.2486874092949805 -1.984478413200343 0
80 -0.04986138347615519 -1.999378364001632 0
81 0.1494601871728399 -1.994407594362361 0
82 0.3472963553338529 -1.969615506024418 0
83 0.5416809362860017 -1.925248493900027 0
84 0.7306820487327825 -1.861747497288411 0
85 0.9124213147063194 -1.779743617622941 0
86 1.085092527731513 -1.680051846301546 0
87 1.246979603717463 -1.563662964936063 0
88 1.396473636172142 -1.43173369851944 0
89 1.532088886237952 -1.285575219373083 0
90 1.652477548631987 -1.126640116127248 0
91 1.756443146740455 -0.9565079572426403 0
92 1.842952423740815 -0.7768695925493911 0
93 1.911145611572281 -0.5895103488218094 0
94 1.960344975697088 -0.3962922863987954 0
95 1.990061550730803 -0.1991356931916346 0
96 -1.175654082524134 -0.1283559184783058 0
97 -1.114792805594394 0.3381687004863921 0
98 -1.016726394161216 -0.555515822679323 0
99 -0.9217172540147097 0.7318054329016817 0
100 -0.7390398781360885 -0.9005226970589206 0
101 -0.5491561711548036 1.027398933752742 0
102 -0.317417853956292 -1.115703245755579 0
103 -0.1342880888444549 1.169217216860136 0
104 0.114185596305456 -1.15934581510007 0
105 0.3381687004863883 1.114792805594395 0
106 0.5708994203782765 -1.011048864296177 0
107 0.7318055836650745 0.9217167855087469 0
108 0.9023147240963053 -0.7267464243325763 0
109 1.028093531235203 0.581883751131075 0
110 1.095311568648132 -0.3372241854230832 0
111 1.156348294280573 0.1085633211240056 0
112 -1.815774576464308 0.1816956509868785 0
113 -1.729260544652501 -0.5236944197722704 0
114 -1.59853419540692 0.8811859251588336 0
115 -1.401122853092392 -1.184528336705869 0
116 -1.14415479347516 1.427520812012655 0
117 -0.8337591507162591 -1.638095653326043 0
118 -0.4998085899973547 1.754650974741311 0
119 -0.1081878007799252 -1.83942162366547 0
120 0.2141990350151999 1.819873142783317 0
121 0.5811434090574507 -1.725955492119083 0
122 0.8950207319600055 1.574900154719136 0
123 1.207472523725362 -1.368232701907825 0
124 1.447576939165351 1.122844756838308 0
125 1.676997177446387 -0.8096404588246559 0
126 1.768413543106349 0.4502934184281779 0
127 1.822574206261224 -0.09096089705446968 0
128 1.782877058343532 -0.4542124474222441 0
129 1.461412943312929 -1.102164147058377 0
130 1.658328868864295 0.7987927638815185 0
131 1.224290402494556 1.361957935146773 0
132 0.9093827305354535 -1.607797921942947 0
133 0.5883169358622887 1.704510811090053 0
134 0.2269076929398198 -1.810680402778583 0
135 -0.4870205443212906 -1.765809418556861 0
136 -0.121259859982428 1.824915853179717 0
137 -0.8094713509060701 1.626762633761178 0
138 -1.438726425796033 1.167889418981561 0
139 -1.602245223591475 -0.8959524738700819 0
140 -1.137738752922986 -1.433293100100808 0
141 -1.71307912328374 0.5605121160817125 0
142 -1.792003174413021 -0.207617737399964 0
143 1.138772837222273 0.3001092732060769 0
144 1.31929417952171 0.2284303124466543 0
145 1.334851978256744 0.02608111214557329 0
146 1.300116250462466 0.424358091471149 0
147 1.498362223992671 0.146038159062405 0
148 1.511313220283617 -0.05120025688134924 0
149 1.357249208552539 -0.1640449549820254 0
150 1.516205144906882 -0.2374800534993639 0
151 1.382499203862056 -0.3547579125944424 0
152 1.014494170746906 -0.5416279505294919 0
153 1.108771442377776 -0.7235254549706774 0
154 0.9922734093675082 -0.9039422180953653 0
155 1.196576103402214 -0.9065524967212165 0
156 1.30562489686141 -0.7221925885372882 0
157 1.094134792432675 -1.07058176033316 0
158 0.8983624091653045 -1.078515761368037 0
159 0.9005226970589261 0.7390398781360811 0
160 0.9462528321912662 0.9346500684229974 0
161 0.8247177243066113 1.099045939418727 0
162 1.099368588005164 0.7611924533167498 0
163 1.159088372552428 0.9531704104523414 0
164 1.285154883698999 0.8008516335855891 0
165 1.023950599765242 1.110567898173797 0
166 0.9043300318002133 1.271268610602054 0
167 0.7043927752278666 1.259875240828503 0
168 -0.1206834231697816 -1.152074536025499 0
169 -0.2593995962777181 -1.30408983460844 0
170 -0.4403838455773822 -1.263928993692321 0
171 -0.06637836307399793 -1.352523040285674 0
172 0.1485098227293782 -1.372404627104399 0
173 0.2885594740838236 -1.245210555097082 0
174 0.3372303244607566 -1.433552640116765 0
175 -0.2004409020295491 -1.487443976887971 0
176 0.47579079448458 -1.315133847135151 0
177 -0.00728301831088138 -1.53334799874188 0
178 0.114185596305465 1.159345815100068 0
179 0.008204178733048462 1.329999628719606 0
180 -0.1939822719636211 1.360307283568001 0
181 0.2471944420609279 1.310141405598409 0
182 0.1473407100139894 1.493237807182111 0
183 0.3483950641717384 1.485383736003446 0
184 -0.06098905608184527 1.508838982330589 0
185 -0.2603029497390974 1.53507651344188 0
186 -0.3927956342778899 1.388945148137614 0
187 -0.9005352967499299 -0.7278111907018479 0
188 -1.107345520279632 -0.7474874486133316 0
189 -1.217295315490705 -0.5708148666646538 0
190 -0.9861284321893321 -0.9152643174854658 0
191 -0.8634494330984187 -1.076935995318053 0
192 -1.053053467703125 -1.09564864530464 0
193 -1.302387414399074 -0.7626985195050334 0
194 -1.417479942188 -0.6001657868031043 0
195 -1.33339449098899 -0.4271469916786478 0
196 -0.7390398781360774 0.900522697058929 0
197 -0.9346528002881548 0.9462541896881754 0
198 -1.099053034011279 0.8247120624579785 0
199 -0.7516140669514728 1.10120874460097 0
200 -0.9512677105818568 1.160252780251037 0
201 -0.8031440758833984 1.293451442109578 0
202 -1.109218000319752 1.022730939945327 0
203 -1.26943230538024 0.9000085155684343 0
204 -1.259881479988607 0.704362917677996 0
205 -1.159345815100068 0.1141855963054691 0
206 -1.333051903533731 0.009013608664693817 0
207 -1.310403454987312 0.2472697111021907 0
208 -1.49419021392074 0.1491830719658172 0
209 -1.483106299688732 0.348494448203861 0
210 -1.521668239438436 -0.04740247482408626 0
211 -0.6821306796902908 -1.080714095958626 0
212 -0.7990086657181282 -1.256546276785525 0
213 0.5258563031902151 1.013021262090587 0
214 -0.3444769810997025 1.088148115887643 0
215 -1.013018383587021 0.5258550112585432 0
216 0.42684424307542 1.322269502277957 0
217 -0.6330123045756121 1.236279486047404 0
218 -1.321931125398722 0.426883645569122 0
219 -1.502517792591458 0.5270411977030345 0
220 1.024534702262616 -1.267615966201527 0
221 0.8014567735167329 -1.249352277572787 0
222 -0.6733610090298429 1.456329234989018 0
223 0.5304537097742664 1.501893685688446 0
224 0.7517365147320699 -0.9035592918365801 0
225 -1.120309642788949 -0.3475667168041197 0
226 0.5240745799830034 -1.497820579116678 0
227 0.3749117562569045 -1.62773986668292 0
228 -1.384271207913439 -0.183555677104118 0
229 -1.575982669449685 -0.2358406280429313 0
230 -1.197330217524883 -0.9526024409212982 0
231 1.226004151378923 -0.5011800230619475 0
232 1.418269496773146 -0.5334940637720167 0
233 -1.401672896125115 -0.9186678859843238 0
234 1.233095542019639 1.14486008955166 0
235 1.690438386475629 0.05070411328861952 0
236 1.669972030250769 0.277737231531751 0
237 -1.538014262411284 -0.4427356107378275 0
238 1.168082177972866 -0.1193016951942479 0
239 0.7106321330693489 -1.574922586200675 0
240 0.04722884390302647 1.684005331811008 0
241 0.1846573006996224 -1.568394421602841 0
242 1.479392241794024 0.3430036168080067 0
243 1.434562135884161 0.5277044380437986 0
244 1.382604160471752 -0.9146848158718542 0
245 1.245810197305894 0.6079382736650562 0
246 -1.124271453429701 1.223023248120049 0
247 0.7900246320677392 1.40416295659759 0
248 -1.41295939969054 0.7938825386487118 0
249 -1.426600747747821 0.979383983159026 0
250 -0.4749149523169559 1.544466125748671 0
251 0.05698354606734837 -1.713650785267608 0
252 0.6759740914192637 -1.383968933250309 0
253 -1.66838287006453 0.07740437840182453 0
254 -0.3868246088471096 -1.450483886777224 0
255 -0.556244975597269 -1.411566356714465 0
256 -0.3404187277523966 -1.625985154885702 0
257 1.815108576364292 -0.2666983434716196 0
258 1.726355597223836 0.6198075111790297 0
259 1.715279806922565 -0.6439681769731398 0
260 1.552787943008215 0.966674425873966 0
261 1.349610300739819 -1.251397031428494 0
262 1.062001476551534 -1.481378219825393 0
263 1.077867353364857 1.47924022509162 0
264 0.7637075637959692 1.69257655508097 0
265 0.4101418602918899 1.796948900238019 0
266 -0.2953096756838849 -1.8027647651062 0
267 -0.2992929664343475 1.806352214888223 0
268 -0.625905844928738 1.62479226427085 0
269 -0.6617604713198061 -1.710022014637008 0
270 -0.9859837745085593 -1.54062171949959 0
271 -0.9619852968939958 -1.359367012587922 0
272 -0.9999999999999913 1.54830284364214 0
273 -1.295324656076097 1.290821768506069 0
274 -1.274868728836942 -1.317113995928468 0
275 -1.707594710875946 0.7373634876942459 0
276 -1.677984513892723 -0.7227580454932314 0
277 -1.819455974094337 -0.3770156821920693 0
278 -1.787169238700552 0.3707862797821024 0
279 -1.649051890094476 0.2630399622827336 0
280 -1.825984585492669 -0.005502889960724195 0
281 0.7209500238359965 -1.08649129818064 0
282 1.573759449198728 -0.9604022549748548 0
283 -0.9797951362096499 1.351592739933826 0
284 1.597880295613959 -0.5095518422317055 0
285 0.8859557411700216 -1.410601090586342 0
286 1.278425295236813 -1.072773035950357 0
287 0.4143880299748059 -1.811847952301006 0
288 1.524345040469707 -0.7277048858836449 0
289 0.04795336452650292 1.864516057227607 0
290 0.2604066261455916 1.643380509170512 0
291 1.810240916062676 0.178877976252115 0
292 1.36670508121793 1.26939433988585 0
293 1.350319941431201 0.9703644079624536 0
294 1.471127816839867 0.8185475687050574 0
295 0.422252774043787 -1.126090600975544 0
296 -0.5068005554573874 -1.097957802153406 0
297 -1.501876977881695 -1.048653089305966 0
298 -1.220898639082937 -1.14303002711135 0
299 -0.5194736431514914 -1.585875165814675 0
300 0.4275428392491551 1.626423528438095 0
301 -1.49749513737384 -0.7501810646261159 0
302 -0.1449097673460643 -1.656892466507194 0
303 -0.8545151974173831 1.456129020314257 0
304 0.6180845318941651 -1.205040110317594 0
305 1.668631738095562 -0.1480845101931838 0
306 -1.099847043448869 -1.258764540308227 0
307 1.605813403605475 0.4662525051511298 0
308 1.068831322490123 1.287810783119454 0
309 -0.6835872905832208 -1.536089311521662 0
310 -0.8283698646457974 -1.451152433440027 0
311 -0.1596686055796544 1.664178821423852 0
312 -1.676804307771668 -0.08379187036517624 0
313 -1.583200834046653 -0.6008436761009205 0
314 -1.277262264791607 1.097309645713411 0
315 -0.6150772885825134 -1.247818025370628 0
316 -1.626984868871792 0.4139748008106888 0
317 1.190835522879457 -1.206120099164273 0
318 0.04669571000959923 -1.872438865030097 0
319 1.548639476459641 0.652136555224647 0
320 1.649747495238056 -0.3342141401726335 0
321 1.395649036340216 0.6817145443873472 0
322 -1.269846179109002 -0.2864081059134542 0
323 0.5258127508709797 1.189286602100277 0
324 -0.4691274552941654 1.21269084968387 0
325 -1.189242219012321 0.5258120972842798 0
326 -1.545037258312426 0.6933116323442052 0
327 -0.95053737525323 -1.204134460816177 0
328 1.127334469747425 0.4593945643676891 0
329 0.6936180410077073 1.540308421352499 0
330 0.7724160597804559 -1.713432932069133 0
331 1.245829262082903 -0.2953017542511493 0
332 0.9472148143365877 1.403476546025971 0
333 -0.3361805551318777 1.664012379681917 0
334 0.6632199691203459 1.113266382742993 0
335 -0.3182324684710184 1.256162689481074 0
336 -1.113263882783613 0.663217509758918 0
337 -0.6870773317554253 1.75457165123234 0
338 -1.442400978478964 -0.3198509257103176 0
339 0.5978356804802499 1.35979290894243 0
340 -0.5350830676036561 1.378241084527317 0
341 -1.362954297470629 0.6014947670568094 0
342 -1.682159496859472 -0.3587482757507824 0
343 1.517782158104114 -0.389257644217684 0
344 1.836864368934223 0.3162610094091231 0
345 -1.556281825326091 1.05891929357328 0
346 -0.6964576170253858 -1.380634480766461 0
347 1.86432039985163 0.05086572780225095 0
348 -0.5732449557336937 -0.9669087479969558 0
349 0.2805543197628553 -1.087062356817443 0
350 -1.319662090521158 -1.044916611916674 0
$EndNodes
$Elements
700
1 1 2 3 1 1 3
2 1 2 3 1 3 4
3 1 2 3 1 4 5
4 1 2 3 1 5 6
5 1 2 3 1 6 7
6 1 2 3 1 7 8
7 1 2 3 1 8 9
8 1 2 3 1 9 10
9 1 2 3 1 10 11
10 1 2 3 1 11 12
11 1 2 3 1 12 13
12 1 2 3 1 13 14
13 1 2 3 1 14 15
14 1 2 3 1 15 16
15 1 2 3 1 16 17
16 1 2 3 1 17 18
17 1 2 3 1 18 19
18 1 2 3 1 19 20
19 1 2 3 1 20 21
20 1 2 3 1 21 22
21 1 2 3 1 22 23
22 1 2 3 1 23 24
23 1 2 3 1 24 25
24 1 2 3 1 25 26
25 1 2 3 1 26 27
26 1 2 3 1 27 28
27 1 2 3 1 28 29
28 1 2 3 1 29 30
29 1 2 3 1 30 31
30 1 2 3 1 31 32
31 1 2 3 1 32 33
32 1 2 3 1 33 1
33 1 2 4 2 2 34
34 1 2 4 2 34 35
35 1 2 4 2 35 36
36 1 2 4 2 36 37
37 1 2 4 2 37 38
38 1 2 4 2 38 39
39 1 2 4 2 39 40
40 1 2 4 2 40 41
41 1 2 4 2 41 42
42 1 2 4 2 42 43
43 1 2 4 2 43 44
44 1 2 4 2 44 45
45 1 2 4 2 45 46
46 1 2 4 2 46 47
47 1 2 4 2 47 48
48 1 2 4 2 48 49
49 1 2 4 2 49 50
50 1 2 4 2 50 51
51 1 2 4 2 51 52
52 1 2 4 2 52 53
53 1 2 4 2 53 54
54 1 2 4 2 54 55
55 1 2 4 2 55 56
56 1 2 4 2 56 57
57 1 2 4 2 57 58
58 1 2 4 2 58 59
59 1 2 4 2 59 60
60 1 2 4 2 60 61
61 1 2 4 2 61 62
62 1 2 4 2 62 63
63 1 2 4 2 63 64
64 1 2 4 2 64 65
65 1 2 4 2 65 66
66 1 2 4 2 66 67
67 1 2 4 2 67 68
68 1 2 4 2 68 69
69 1 2 4 2 69 70
70 1 2 4 2 70 71
71 1 2 4 2 71 72
72 1 2 4 2 72 73
73 1 2 4 2 73 74
74 1 2 4 2 74 75
75 1 2 4 2 75 76
76 1 2 4 2 76 77
77 1 2 4 2 77 78
78 1 2 4 2 78 79
79 1 2 4 2 79 80
80 1 2 4 2 80 81
81 1 2 4 2 81 82
82 1 2 4 2 82 83
83 1 2 4 2 83 84
84 1 2 4 2 84 85
85 1 2 4 2 85 86
86 1 2 4 2 86 87
87 1 2 4 2 87 88
88 1 2 4 2 88 89
89 1 2 4 2 89 90
90 1 2 4 2 90 91
91 1 2 4 2 91 92
92 1 2 4 2 92 93
93 1 2 4 2 93 94
94 1 2 4 2 94 95
95 1 2 4 2 95 2
96 2 2 5 1 295 304 106
97 2 2 5 1 176 304 295
98 2 2 5 1 154 224 158
99 2 2 5 1 189 225 195
100 2 2 5 1 156 231 153
101 2 2 5 1 284 288 259
102 2 2 5 1 171 172 104
103 2 2 5 1 190 191 100
104 2 2 5 1 108 224 154
105 2 2 5 1 98 225 189
106 2 2 5 1 168 171 104
107 2 2 5 1 187 190 100
108 2 2 5 1 162 163 160
109 2 2 5 1 181 182 179
110 2 2 5 1 199 200 197
111 2 2 5 1 207 208 206
112 2 2 5 1 259 288 125
113 2 2 5 1 159 162 160
114 2 2 5 1 178 181 179
115 2 2 5 1 196 199 197
116 2 2 5 1 205 207 206
117 2 2 5 1 153 231 152
118 2 2 5 1 220 262 123
119 2 2 5 1 227 241 134
120 2 2 5 1 136 311 240
121 2 2 5 1 219 326 141
122 2 2 5 1 239 285 252
123 2 2 5 1 273 314 246
124 2 2 5 1 156 232 231
125 2 2 5 1 240 289 136
126 2 2 5 1 222 340 250
127 2 2 5 1 226 227 121
128 2 2 5 1 250 268 222
129 2 2 5 1 220 285 262
130 2 2 5 1 282 288 244
131 2 2 5 1 132 285 239
132 2 2 5 1 111 238 145
133 2 2 5 1 142 342 229
134 2 2 5 1 125 288 282
135 2 2 5 1 165 166 161
136 2 2 5 1 184 185 180
137 2 2 5 1 202 203 198
138 2 2 5 1 138 314 273
139 2 2 5 1 141 326 275
140 2 2 5 1 171 177 172
141 2 2 5 1 193 230 188
142 2 2 5 1 131 308 234
143 2 2 5 1 143 328 4
144 2 2 5 1 105 216 181
145 2 2 5 1 206 228 96
146 2 2 5 1 101 217 199
147 2 2 5 1 97 218 207
148 2 2 5 1 121 239 226
149 2 2 5 1 225 322 195
150 2 2 5 1 109 245 162
151 2 2 5 1 229 312 142
152 2 2 5 1 160 165 161
153 2 2 5 1 179 184 180
154 2 2 5 1 197 202 198
155 2 2 5 1 109 162 159
156 2 2 5 1 105 181 178
157 2 2 5 1 159 160 107
158 2 2 5 1 178 179 103
159 2 2 5 1 102 169 168
160 2 2 5 1 196 197 99
161 2 2 5 1 98 188 187
162 2 2 5 1 108 153 152
163 2 2 5 1 205 206 96
164 2 2 5 1 97 207 205
165 2 2 5 1 101 199 196
166 2 2 5 1 152 231 110
167 2 2 5 1 222 268 137
168 2 2 5 1 293 294 260
169 2 2 5 1 241 251 134
170 2 2 5 1 141 316 219
171 2 2 5 1 145 238 149
172 2 2 5 1 177 241 172
173 2 2 5 1 266 302 256
174 2 2 5 1 167 339 323
175 2 2 5 1 186 340 324
176 2 2 5 1 204 341 325
177 2 2 5 1 188 230 190
178 2 2 5 1 224 281 158
179 2 2 5 1 232 288 284
180 2 2 5 1 107 334 213
181 2 2 5 1 103 335 214
182 2 2 5 1 99 336 215
183 2 2 5 1 4 328 109
184 2 2 5 1 3 143 4
185 2 2 5 1 234 292 131
186 2 2 5 1 1 238 111
187 2 2 5 1 110 238 33
188 2 2 5 1 30 224 108
189 2 2 5 1 106 224 29
190 2 2 5 1 107 213 7
191 2 2 5 1 8 213 105
192 2 2 5 1 20 225 98
193 2 2 5 1 96 225 19
194 2 2 5 1 103 214 11
195 2 2 5 1 12 214 101
196 2 2 5 1 99 215 15
197 2 2 5 1 16 215 97
198 2 2 5 1 109 159 5
199 2 2 5 1 6 159 107
200 2 2 5 1 105 178 9
201 2 2 5 1 26 168 104
202 2 2 5 1 10 178 103
203 2 2 5 1 102 168 25
204 2 2 5 1 101 196 13
205 2 2 5 1 14 196 99
206 2 2 5 1 22 187 100
207 2 2 5 1 98 187 21
208 2 2 5 1 97 205 17
209 2 2 5 1 18 205 96
210 2 2 5 1 32 152 110
211 2 2 5 1 108 152 31
212 2 2 5 1 124 293 260
213 2 2 5 1 296 315 170
214 2 2 5 1 223 329 133
215 2 2 5 1 105 323 216
216 2 2 5 1 101 324 217
217 2 2 5 1 97 325 218
218 2 2 5 1 119 302 266
219 2 2 5 1 193 233 230
220 2 2 5 1 151 331 231
221 2 2 5 1 137 303 222
222 2 2 5 1 323 334 167
223 2 2 5 1 324 335 186
224 2 2 5 1 325 336 204
225 2 2 5 1 123 317 220
226 2 2 5 1 231 331 110
227 2 2 5 1 228 322 96
228 2 2 5 1 251 302 119
229 2 2 5 1 191 211 100
230 2 2 5 1 172 173 104
231 2 2 5 1 190 192 191
232 2 2 5 1 181 183 182
233 2 2 5 1 162 164 163
234 2 2 5 1 200 202 197
235 2 2 5 1 208 210 206
236 2 2 5 1 207 209 208
237 2 2 5 1 163 165 160
238 2 2 5 1 199 201 200
239 2 2 5 1 182 184 179
240 2 2 5 1 109 328 245
241 2 2 5 1 134 287 227
242 2 2 5 1 277 342 142
243 2 2 5 1 176 295 173
244 2 2 5 1 243 245 146
245 2 2 5 1 102 296 170
246 2 2 5 1 106 281 224
247 2 2 5 1 133 300 223
248 2 2 5 1 231 232 151
249 2 2 5 1 301 313 276
250 2 2 5 1 166 167 161
251 2 2 5 1 185 186 180
252 2 2 5 1 203 204 198
253 2 2 5 1 96 322 225
254 2 2 5 1 161 334 107
255 2 2 5 1 180 335 103
256 2 2 5 1 198 336 99
257 2 2 5 1 267 311 136
258 2 2 5 1 227 287 121
259 2 2 5 1 267 333 311
260 2 2 5 1 234 308 165
261 2 2 5 1 108 154 153
262 2 2 5 1 160 161 107
263 2 2 5 1 179 180 103
264 2 2 5 1 102 170 169
265 2 2 5 1 197 198 99
266 2 2 5 1 98 189 188
267 2 2 5 1 169 171 168
268 2 2 5 1 188 190 187
269 2 2 5 1 139 301 276
270 2 2 5 1 240 311 184
271 2 2 5 1 172 241 174
272 2 2 5 1 210 228 206
273 2 2 5 1 181 216 183
274 2 2 5 1 199 217 201
275 2 2 5 1 207 218 209
276 2 2 5 1 174 241 227
277 2 2 5 1 191 212 211
278 2 2 5 1 172 174 173
279 2 2 5 1 190 230 192
280 2 2 5 1 182 240 184
281 2 2 5 1 213 323 105
282 2 2 5 1 163 234 165
283 2 2 5 1 214 324 101
284 2 2 5 1 215 325 97
285 2 2 5 1 120 290 265
286 2 2 5 1 110 331 238
287 2 2 5 1 246 314 202
288 2 2 5 1 115 350 297
289 2 2 5 1 290 300 265
290 2 2 5 1 226 252 176
291 2 2 5 1 252 285 221
292 2 2 5 1 119 318 251
293 2 2 5 1 169 175 171
294 2 2 5 1 154 155 153
295 2 2 5 1 189 193 188
296 2 2 5 1 174 176 173
297 2 2 5 1 210 229 228
298 2 2 5 1 217 222 201
299 2 2 5 1 218 219 209
300 2 2 5 1 216 223 183
301 2 2 5 1 297 350 233
302 2 2 5 1 2 127 95
303 2 2 5 1 36 126 35
304 2 2 5 1 92 125 91
305 2 2 5 1 40 124 39
306 2 2 5 1 88 123 87
307 2 2 5 1 44 122 43
308 2 2 5 1 84 121 83
309 2 2 5 1 48 120 47
310 2 2 5 1 80 119 79
311 2 2 5 1 52 118 51
312 2 2 5 1 76 117 75
313 2 2 5 1 56 116 55
314 2 2 5 1 72 115 71
315 2 2 5 1 60 114 59
316 2 2 5 1 68 113 67
317 2 2 5 1 64 112 63
318 2 2 5 1 94 128 93
319 2 2 5 1 38 130 37
320 2 2 5 1 90 129 89
321 2 2 5 1 42 131 41
322 2 2 5 1 86 132 85
323 2 2 5 1 46 133 45
324 2 2 5 1 82 134 81
325 2 2 5 1 50 136 49
326 2 2 5 1 78 135 77
327 2 2 5 1 54 137 53
328 2 2 5 1 74 140 73
329 2 2 5 1 58 138 57
330 2 2 5 1 70 139 69
331 2 2 5 1 62 141 61
332 2 2 5 1 66 142 65
333 2 2 5 1 27 349 28
334 2 2 5 1 23 348 24
335 2 2 5 1 154 158 157
336 2 2 5 1 189 195 194
337 2 2 5 1 145 149 148
338 2 2 5 1 149 151 150
339 2 2 5 1 155 156 153
340 2 2 5 1 175 177 171
341 2 2 5 1 154 157 155
342 2 2 5 1 189 194 193
343 2 2 5 1 158 221 220
344 2 2 5 1 174 226 176
345 2 2 5 1 271 310 212
346 2 2 5 1 149 150 148
347 2 2 5 1 1 111 3
348 2 2 5 1 32 110 33
349 2 2 5 1 4 109 5
350 2 2 5 1 30 108 31
351 2 2 5 1 6 107 7
352 2 2 5 1 28 106 29
353 2 2 5 1 8 105 9
354 2 2 5 1 26 104 27
355 2 2 5 1 10 103 11
356 2 2 5 1 24 102 25
357 2 2 5 1 12 101 13
358 2 2 5 1 22 100 23
359 2 2 5 1 14 99 15
360 2 2 5 1 20 98 21
361 2 2 5 1 16 97 17
362 2 2 5 1 18 96 19
363 2 2 5 1 33 238 1
364 2 2 5 1 29 224 30
365 2 2 5 1 158 220 157
366 2 2 5 1 7 213 8
367 2 2 5 1 19 225 20
368 2 2 5 1 11 214 12
369 2 2 5 1 15 215 16
370 2 2 5 1 195 237 194
371 2 2 5 1 5 159 6
372 2 2 5 1 9 178 10
373 2 2 5 1 25 168 26
374 2 2 5 1 13 196 14
375 2 2 5 1 21 187 22
376 2 2 5 1 17 205 18
377 2 2 5 1 31 152 32
378 2 2 5 1 111 145 144
379 2 2 5 1 111 143 3
380 2 2 5 1 235 236 147
381 2 2 5 1 162 245 164
382 2 2 5 1 145 148 147
383 2 2 5 1 174 227 226
384 2 2 5 1 144 146 143
385 2 2 5 1 148 235 147
386 2 2 5 1 145 147 144
387 2 2 5 1 111 144 143
388 2 2 5 1 242 243 146
389 2 2 5 1 236 242 147
390 2 2 5 1 144 242 146
391 2 2 5 1 156 288 232
392 2 2 5 1 147 242 144
393 2 2 5 1 209 279 208
394 2 2 5 1 126 307 236
395 2 2 5 1 237 342 113
396 2 2 5 1 155 244 156
397 2 2 5 1 28 349 295
398 2 2 5 1 24 348 296
399 2 2 5 1 122 329 247
400 2 2 5 1 200 246 202
401 2 2 5 1 324 340 217
402 2 2 5 1 325 341 218
403 2 2 5 1 323 339 216
404 2 2 5 1 113 313 237
405 2 2 5 1 258 319 307
406 2 2 5 1 235 305 127
407 2 2 5 1 211 315 296
408 2 2 5 1 106 304 281
409 2 2 5 1 244 288 156
410 2 2 5 1 124 292 234
411 2 2 5 1 166 247 167
412 2 2 5 1 177 302 251
413 2 2 5 1 264 329 122
414 2 2 5 1 230 298 192
415 2 2 5 1 326 341 248
416 2 2 5 1 203 248 204
417 2 2 5 1 185 250 186
418 2 2 5 1 258 307 126
419 2 2 5 1 263 308 131
420 2 2 5 1 208 279 253
421 2 2 5 1 329 339 247
422 2 2 5 1 234 293 124
423 2 2 5 1 233 301 139
424 2 2 5 1 208 253 210
425 2 2 5 1 239 252 226
426 2 2 5 1 139 297 233
427 2 2 5 1 248 249 114
428 2 2 5 1 177 251 241
429 2 2 5 1 263 332 308
430 2 2 5 1 203 249 248
431 2 2 5 1 116 283 272
432 2 2 5 1 201 283 200
433 2 2 5 1 170 255 254
434 2 2 5 1 135 299 269
435 2 2 5 1 155 286 244
436 2 2 5 1 133 329 264
437 2 2 5 1 270 271 140
438 2 2 5 1 254 256 175
439 2 2 5 1 127 305 257
440 2 2 5 1 305 320 257
441 2 2 5 1 244 286 129
442 2 2 5 1 164 294 293
443 2 2 5 1 148 305 235
444 2 2 5 1 170 254 169
445 2 2 5 1 236 344 126
446 2 2 5 1 243 321 245
447 2 2 5 1 299 309 269
448 2 2 5 1 112 280 253
449 2 2 5 1 236 307 242
450 2 2 5 1 169 254 175
451 2 2 5 1 90 282 129
452 2 2 5 1 256 302 175
453 2 2 5 1 193 301 233
454 2 2 5 1 262 285 132
455 2 2 5 1 36 258 126
456 2 2 5 1 88 261 123
457 2 2 5 1 123 262 87
458 2 2 5 1 122 263 43
459 2 2 5 1 119 266 79
460 2 2 5 1 76 269 117
461 2 2 5 1 117 270 75
462 2 2 5 1 56 273 116
463 2 2 5 1 127 257 95
464 2 2 5 1 72 274 115
465 2 2 5 1 92 259 125
466 2 2 5 1 124 260 39
467 2 2 5 1 68 276 113
468 2 2 5 1 112 278 63
469 2 2 5 1 44 264 122
470 2 2 5 1 120 265 47
471 2 2 5 1 118 267 51
472 2 2 5 1 116 272 55
473 2 2 5 1 60 275 114
474 2 2 5 1 113 277 67
475 2 2 5 1 64 280 112
476 2 2 5 1 130 258 37
477 2 2 5 1 129 261 89
478 2 2 5 1 42 263 131
479 2 2 5 1 86 262 132
480 2 2 5 1 78 266 135
481 2 2 5 1 135 269 77
482 2 2 5 1 74 270 140
483 2 2 5 1 140 274 73
484 2 2 5 1 138 273 57
485 2 2 5 1 94 257 128
486 2 2 5 1 128 259 93
487 2 2 5 1 139 276 69
488 2 2 5 1 38 260 130
489 2 2 5 1 62 278 141
490 2 2 5 1 133 264 45
491 2 2 5 1 46 265 133
492 2 2 5 1 50 267 136
493 2 2 5 1 54 272 137
494 2 2 5 1 141 275 61
495 2 2 5 1 66 277 142
496 2 2 5 1 142 280 65
497 2 2 5 1 183 290 182
498 2 2 5 1 220 317 157
499 2 2 5 1 37 258 36
500 2 2 5 1 89 261 88
501 2 2 5 1 87 262 86
502 2 2 5 1 43 263 42
503 2 2 5 1 79 266 78
504 2 2 5 1 77 269 76
505 2 2 5 1 75 270 74
506 2 2 5 1 57 273 56
507 2 2 5 1 73 274 72
508 2 2 5 1 69 276 68
509 2 2 5 1 63 278 62
510 2 2 5 1 95 257 94
511 2 2 5 1 93 259 92
512 2 2 5 1 39 260 38
513 2 2 5 1 45 264 44
514 2 2 5 1 47 265 46
515 2 2 5 1 51 267 50
516 2 2 5 1 55 272 54
517 2 2 5 1 61 275 60
518 2 2 5 1 67 277 66
519 2 2 5 1 65 280 64
520 2 2 5 1 120 289 240
521 2 2 5 1 158 281 221
522 2 2 5 1 135 266 256
523 2 2 5 1 91 282 90
524 2 2 5 1 270 310 271
525 2 2 5 1 125 282 91
526 2 2 5 1 200 283 246
527 2 2 5 1 129 282 244
528 2 2 5 1 247 339 167
529 2 2 5 1 118 268 250
530 2 2 5 1 121 287 83
531 2 2 5 1 82 287 134
532 2 2 5 1 48 289 120
533 2 2 5 1 136 289 49
534 2 2 5 1 248 341 204
535 2 2 5 1 250 340 186
536 2 2 5 1 182 290 240
537 2 2 5 1 268 337 137
538 2 2 5 1 40 292 124
539 2 2 5 1 131 292 41
540 2 2 5 1 164 293 163
541 2 2 5 1 127 347 235
542 2 2 5 1 253 279 112
543 2 2 5 1 210 312 229
544 2 2 5 1 221 285 220
545 2 2 5 1 116 273 246
546 2 2 5 1 252 304 176
547 2 2 5 1 212 327 271
548 2 2 5 1 240 290 120
549 2 2 5 1 255 299 254
550 2 2 5 1 254 299 256
551 2 2 5 1 115 297 71
552 2 2 5 1 70 297 139
553 2 2 5 1 157 286 155
554 2 2 5 1 129 286 261
555 2 2 5 1 83 287 82
556 2 2 5 1 283 303 272
557 2 2 5 1 163 293 234
558 2 2 5 1 49 289 48
559 2 2 5 1 121 330 239
560 2 2 5 1 239 330 132
561 2 2 5 1 238 331 149
562 2 2 5 1 222 303 201
563 2 2 5 1 140 306 274
564 2 2 5 1 170 315 255
565 2 2 5 1 246 283 116
566 2 2 5 1 80 318 119
567 2 2 5 1 134 318 81
568 2 2 5 1 235 291 236
569 2 2 5 1 41 292 40
570 2 2 5 1 165 308 166
571 2 2 5 1 117 310 270
572 2 2 5 1 112 279 278
573 2 2 5 1 310 346 212
574 2 2 5 1 84 330 121
575 2 2 5 1 132 330 85
576 2 2 5 1 52 337 118
577 2 2 5 1 114 345 59
578 2 2 5 1 137 337 53
579 2 2 5 1 58 345 138
580 2 2 5 1 34 347 2
581 2 2 5 1 35 344 34
582 2 2 5 1 184 311 185
583 2 2 5 1 202 314 203
584 2 2 5 1 232 343 151
585 2 2 5 1 274 306 298
586 2 2 5 1 28 295 106
587 2 2 5 1 24 296 102
588 2 2 5 1 249 345 114
589 2 2 5 1 71 297 70
590 2 2 5 1 203 314 249
591 2 2 5 1 280 312 253
592 2 2 5 1 249 314 138
593 2 2 5 1 230 350 298
594 2 2 5 1 128 320 284
595 2 2 5 1 191 327 212
596 2 2 5 1 219 316 209
597 2 2 5 1 223 300 183
598 2 2 5 1 294 321 319
599 2 2 5 1 138 345 249
600 2 2 5 1 128 284 259
601 2 2 5 1 256 299 135
602 2 2 5 1 194 301 193
603 2 2 5 1 219 341 326
604 2 2 5 1 175 302 177
605 2 2 5 1 251 318 134
606 2 2 5 1 245 328 146
607 2 2 5 1 114 326 248
608 2 2 5 1 150 305 148
609 2 2 5 1 294 319 130
610 2 2 5 1 279 316 278
611 2 2 5 1 194 313 301
612 2 2 5 1 118 337 268
613 2 2 5 1 242 307 243
614 2 2 5 1 278 316 141
615 2 2 5 1 183 300 290
616 2 2 5 1 223 339 329
617 2 2 5 1 212 315 211
618 2 2 5 1 271 306 140
619 2 2 5 1 260 294 130
620 2 2 5 1 113 342 277
621 2 2 5 1 237 313 194
622 2 2 5 1 192 327 191
623 2 2 5 1 307 319 243
624 2 2 5 1 275 326 114
625 2 2 5 1 237 338 229
626 2 2 5 1 250 333 118
627 2 2 5 1 291 347 34
628 2 2 5 1 229 342 237
629 2 2 5 1 233 350 230
630 2 2 5 1 211 348 100
631 2 2 5 1 173 349 104
632 2 2 5 1 34 344 291
633 2 2 5 1 320 343 284
634 2 2 5 1 81 318 80
635 2 2 5 1 265 300 133
636 2 2 5 1 142 312 280
637 2 2 5 1 274 298 115
638 2 2 5 1 221 304 252
639 2 2 5 1 284 343 232
640 2 2 5 1 286 317 261
641 2 2 5 1 167 334 161
642 2 2 5 1 186 335 180
643 2 2 5 1 204 336 198
644 2 2 5 1 272 303 137
645 2 2 5 1 146 328 143
646 2 2 5 1 149 331 151
647 2 2 5 1 85 330 84
648 2 2 5 1 118 333 267
649 2 2 5 1 245 321 164
650 2 2 5 1 150 320 305
651 2 2 5 1 276 313 113
652 2 2 5 1 255 309 299
653 2 2 5 1 281 304 221
654 2 2 5 1 195 338 237
655 2 2 5 1 201 303 283
656 2 2 5 1 247 332 122
657 2 2 5 1 253 312 210
658 2 2 5 1 53 337 52
659 2 2 5 1 229 338 228
660 2 2 5 1 217 340 222
661 2 2 5 1 216 339 223
662 2 2 5 1 218 341 219
663 2 2 5 1 126 344 35
664 2 2 5 1 2 347 127
665 2 2 5 1 59 345 58
666 2 2 5 1 151 343 150
667 2 2 5 1 100 348 23
668 2 2 5 1 104 349 27
669 2 2 5 1 269 309 117
670 2 2 5 1 291 344 236
671 2 2 5 1 235 347 291
672 2 2 5 1 209 316 279
673 2 2 5 1 315 346 255
674 2 2 5 1 298 306 192
675 2 2 5 1 322 338 195
676 2 2 5 1 228 338 322
677 2 2 5 1 166 332 247
678 2 2 5 1 308 332 166
679 2 2 5 1 261 317 123
680 2 2 5 1 122 332 263
681 2 2 5 1 311 333 185
682 2 2 5 1 130 319 258
683 2 2 5 1 185 333 250
684 2 2 5 1 257 320 128
685 2 2 5 1 213 334 323
686 2 2 5 1 214 335 324
687 2 2 5 1 215 336 325
688 2 2 5 1 319 321 243
689 2 2 5 1 157 317 286
690 2 2 5 1 309 310 117
691 2 2 5 1 164 321 294
692 2 2 5 1 309 346 310
693 2 2 5 1 255 346 309
694 2 2 5 1 306 327 192
695 2 2 5 1 271 327 306
696 2 2 5 1 298 350 115
697 2 2 5 1 150 343 320
698 2 2 5 1 212 346 315
699 2 2 5 1 296 348 211
700 2 2 5 1 295 349 173
$EndElements
